<?xml version="1.0" encoding="UTF-8" standalone="no"?>
<svg
   version="1.1"
   x="0px"
   y="0px"
   viewBox="0 0 57.000069 64"
   enable-background="new 0 0 64 64"
   xml:space="preserve"
   id="svg86"
   sodipodi:docname="noun_whip_1793172.svg"
   width="57.000069"
   height="64"
   inkscape:version="1.1.1 (3bf5ae0d25, 2021-09-20)"
   xmlns:inkscape="http://www.inkscape.org/namespaces/inkscape"
   xmlns:sodipodi="http://sodipodi.sourceforge.net/DTD/sodipodi-0.dtd"
   xmlns="http://www.w3.org/2000/svg"
   xmlns:svg="http://www.w3.org/2000/svg"><defs
     id="defs90" /><sodipodi:namedview
     id="namedview88"
     pagecolor="#ffffff"
     bordercolor="#666666"
     borderopacity="1.0"
     inkscape:pageshadow="2"
     inkscape:pageopacity="0.0"
     inkscape:pagecheckerboard="0"
     showgrid="false"
     inkscape:zoom="10.3375"
     inkscape:cx="28.488513"
     inkscape:cy="47.787183"
     inkscape:window-width="1920"
     inkscape:window-height="1010"
     inkscape:window-x="-7"
     inkscape:window-y="-7"
     inkscape:window-maximized="1"
     inkscape:current-layer="svg86" /><g
     id="g80"
     transform="translate(-3.4999309)"><g
       id="g78"><g
         id="g4"><path
           d="m 5.5,60 c -0.553,0 -1,-0.447 -1,-1 V 40 c 0,-0.553 0.447,-1 1,-1 0.553,0 1,0.447 1,1 v 19 c 0,0.553 -0.447,1 -1,1 z"
           id="path2" /></g><g
         id="g8"><path
           d="m 9.5,60 c -0.553,0 -1,-0.447 -1,-1 V 40 c 0,-0.553 0.447,-1 1,-1 0.553,0 1,0.447 1,1 v 19 c 0,0.553 -0.447,1 -1,1 z"
           id="path6" /></g><g
         id="g12"><path
           d="m 9.5,64 h -4 C 5.041,64 4.642,63.687 4.53,63.242 l -1,-4 C 3.455,58.943 3.522,58.627 3.712,58.385 3.901,58.142 4.192,58 4.5,58 h 6 c 0.308,0 0.599,0.142 0.788,0.385 0.189,0.242 0.257,0.559 0.182,0.857 l -1,4 C 10.358,63.688 9.959,64 9.5,64 Z M 6.281,62 h 2.438 l 0.5,-2 H 5.781 Z"
           id="path10" /></g><g
         id="g16"><path
           d="m 5.5,57 c -0.256,0 -0.512,-0.098 -0.707,-0.293 -0.391,-0.391 -0.391,-1.023 0,-1.414 l 2,-2 c 0.391,-0.391 1.023,-0.391 1.414,0 0.391,0.391 0.391,1.023 0,1.414 l -2,2 C 6.012,56.902 5.756,57 5.5,57 Z"
           id="path14" /></g><g
         id="g20"><path
           d="M 9.5,57 C 9.244,57 8.988,56.902 8.793,56.707 l -2,-2 c -0.391,-0.391 -0.391,-1.023 0,-1.414 0.391,-0.391 1.023,-0.391 1.414,0 l 2,2 c 0.391,0.391 0.391,1.023 0,1.414 C 10.012,56.902 9.756,57 9.5,57 Z"
           id="path18" /></g><g
         id="g24"><path
           d="m 5.5,52 c -0.256,0 -0.512,-0.098 -0.707,-0.293 -0.391,-0.391 -0.391,-1.023 0,-1.414 l 2,-2 c 0.391,-0.391 1.023,-0.391 1.414,0 0.391,0.391 0.391,1.023 0,1.414 l -2,2 C 6.012,51.902 5.756,52 5.5,52 Z"
           id="path22" /></g><g
         id="g28"><path
           d="M 9.5,52 C 9.244,52 8.988,51.902 8.793,51.707 l -2,-2 c -0.391,-0.391 -0.391,-1.023 0,-1.414 0.391,-0.391 1.023,-0.391 1.414,0 l 2,2 c 0.391,0.391 0.391,1.023 0,1.414 C 10.012,51.902 9.756,52 9.5,52 Z"
           id="path26" /></g><g
         id="g32"><path
           d="m 5.5,47 c -0.256,0 -0.512,-0.098 -0.707,-0.293 -0.391,-0.391 -0.391,-1.023 0,-1.414 l 2,-2 c 0.391,-0.391 1.023,-0.391 1.414,0 0.391,0.391 0.391,1.023 0,1.414 l -2,2 C 6.012,46.902 5.756,47 5.5,47 Z"
           id="path30" /></g><g
         id="g36"><path
           d="M 9.5,47 C 9.244,47 8.988,46.902 8.793,46.707 l -2,-2 c -0.391,-0.391 -0.391,-1.023 0,-1.414 0.391,-0.391 1.023,-0.391 1.414,0 l 2,2 c 0.391,0.391 0.391,1.023 0,1.414 C 10.012,46.902 9.756,47 9.5,47 Z"
           id="path34" /></g><g
         id="g40"><path
           d="m 10.5,41 h -6 c -0.553,0 -1,-0.447 -1,-1 0,-0.553 0.447,-1 1,-1 h 6 c 0.553,0 1,0.447 1,1 0,0.553 -0.447,1 -1,1 z"
           id="path38" /></g><g
         id="g44"><path
           d="m 59.5,28 c -0.553,0 -1,-0.447 -1,-1 0,-13.785 -11.215,-25 -25,-25 -13.785,0 -25,11.215 -25,25 0,0.553 -0.447,1 -1,1 -0.553,0 -1,-0.447 -1,-1 0,-14.888 12.112,-27 27,-27 14.888,0 27,12.112 27,27 0,0.553 -0.447,1 -1,1 z"
           id="path42" /></g><g
         id="g48"><path
           d="m 35.5,52 c -13.785,0 -25,-11.215 -25,-25 0,-0.553 0.447,-1 1,-1 0.553,0 1,0.447 1,1 0,12.683 10.317,23 23,23 12.683,0 23,-10.317 23,-23 0,-0.553 0.447,-1 1,-1 0.553,0 1,0.447 1,1 0,13.785 -11.215,25 -25,25 z"
           id="path46" /></g><g
         id="g52"><path
           d="m 55.5,28 c -0.553,0 -1,-0.447 -1,-1 0,-11.579 -9.421,-21 -21,-21 -11.579,0 -21,9.421 -21,21 0,0.553 -0.447,1 -1,1 -0.553,0 -1,-0.447 -1,-1 0,-12.683 10.317,-23 23,-23 12.683,0 23,10.317 23,23 0,0.553 -0.447,1 -1,1 z"
           id="path50" /></g><g
         id="g56"><path
           d="m 35.5,48 c -11.579,0 -21,-9.421 -21,-21 0,-0.553 0.447,-1 1,-1 0.553,0 1,0.447 1,1 0,10.477 8.523,19 19,19 10.477,0 19,-8.523 19,-19 0,-0.553 0.447,-1 1,-1 0.553,0 1,0.447 1,1 0,11.579 -9.421,21 -21,21 z"
           id="path54" /></g><g
         id="g60"><path
           d="m 7.5,41 c -0.553,0 -1,-0.447 -1,-1 V 27 c 0,-0.553 0.447,-1 1,-1 0.553,0 1,0.447 1,1 v 13 c 0,0.553 -0.447,1 -1,1 z"
           id="path58" /></g><g
         id="g64"><path
           d="m 51.5,28 c -0.553,0 -1,-0.447 -1,-1 0,-9.374 -7.626,-17 -17,-17 -9.374,0 -17,7.626 -17,17 0,0.553 -0.447,1 -1,1 -0.553,0 -1,-0.447 -1,-1 0,-10.477 8.523,-19 19,-19 10.477,0 19,8.523 19,19 0,0.553 -0.447,1 -1,1 z"
           id="path62" /></g><g
         id="g68"><path
           d="m 35.5,44 c -0.553,0 -1,-0.447 -1,-1 0,-0.553 0.447,-1 1,-1 8.271,0 15,-6.729 15,-15 0,-0.553 0.447,-1 1,-1 0.553,0 1,0.447 1,1 0,9.374 -7.626,17 -17,17 z"
           id="path66" /></g><g
         id="g72"><path
           d="m 35.5,44 c -0.256,0 -0.512,-0.098 -0.707,-0.293 l -3,-3 c -0.391,-0.391 -0.391,-1.023 0,-1.414 0.391,-0.391 1.023,-0.391 1.414,0 l 3,3 c 0.391,0.391 0.391,1.023 0,1.414 C 36.012,43.902 35.756,44 35.5,44 Z"
           id="path70" /></g><g
         id="g76"><path
           d="m 35.5,44 h -4 c -0.553,0 -1,-0.447 -1,-1 0,-0.553 0.447,-1 1,-1 h 4 c 0.553,0 1,0.447 1,1 0,0.553 -0.447,1 -1,1 z"
           id="path74" /></g></g></g></svg>
