<?xml version="1.0" encoding="UTF-8" standalone="no"?>
<svg
   viewBox="0 0 11.641705 10.567109"
   version="1.1"
   x="0px"
   y="0px"
   id="svg14"
   sodipodi:docname="noun_Drumstick_3068021.svg"
   width="11.641705"
   height="10.567109"
   inkscape:version="1.1.1 (3bf5ae0d25, 2021-09-20)"
   xmlns:inkscape="http://www.inkscape.org/namespaces/inkscape"
   xmlns:sodipodi="http://sodipodi.sourceforge.net/DTD/sodipodi-0.dtd"
   xmlns="http://www.w3.org/2000/svg"
   xmlns:svg="http://www.w3.org/2000/svg">
  <defs
     id="defs18" />
  <sodipodi:namedview
     id="namedview16"
     pagecolor="#ffffff"
     bordercolor="#666666"
     borderopacity="1.0"
     inkscape:pageshadow="2"
     inkscape:pageopacity="0.0"
     inkscape:pagecheckerboard="0"
     showgrid="false"
     inkscape:zoom="3.2559055"
     inkscape:cx="68.951632"
     inkscape:cy="-0.30713422"
     inkscape:window-width="1920"
     inkscape:window-height="1010"
     inkscape:window-x="-7"
     inkscape:window-y="-7"
     inkscape:window-maximized="1"
     inkscape:current-layer="svg14" />
  <g
     transform="translate(-0.52914129,-285.36643)"
     id="g8">
    <path
       d="m 10.145234,286.84663 a 0.99629983,0.99629983 0 0 0 0.947536,-1.07814 0.4364308,0.4364308 0 0 0 -0.398664,-0.39861 0.99629983,0.99629983 0 0 0 -1.0781559,0.94753 0.38187697,0.38187697 0 0 1 -0.1167023,0.25789 l -2.9911661,2.87643 0.5124798,0.49283 2.8668348,-2.98115 a 0.38187697,0.38187697 0 0 1 0.2578377,-0.11678 z"
      
       id="path2" />
    <path
       d="m 5.6746707,290.25311 0.5246448,0.54548 -4.7861338,4.97701 a 0.51354205,0.51354205 0 1 1 -0.72609029,-0.72612 z"

       id="path4" />
    <path
       d="m 3.0853646,286.31741 a 0.99629983,0.99629983 0 0 0 -1.0781559,-0.94753 0.4364308,0.4364308 0 0 0 -0.3986641,0.39861 0.99629983,0.99629983 0 0 0 0.9475359,1.07814 0.38187697,0.38187697 0 0 1 0.2578379,0.11678 l 8.4742146,8.81219 a 0.51354205,0.51354205 0 1 0 0.726193,-0.72612 L 3.2020669,286.5753 a 0.38187697,0.38187697 0 0 1 -0.1167023,-0.25789 z"
   
       id="path6" />
  </g>
</svg>
