<?xml version="1.0" encoding="UTF-8"?>
<svg width="700pt" height="700pt" version="1.1" viewBox="0 0 700 700" xmlns="http://www.w3.org/2000/svg">
 <path d="m256.07 8.75c-13.238 0-24.406 9.8594-26.047 22.992l-11.086 88.68c-7.0273-0.31641-14.227 1.3047-20.77 5.082l-0.92188 0.53125-34.879-60.41c-2.418-4.1836-7.7695-5.6172-11.953-3.2031-4.1836 2.418-5.6211 7.7695-3.2031 11.953l34.879 60.41-0.92188 0.53516c-18.266 10.543-24.523 33.902-13.977 52.168 8.4961 14.719 25.312 21.641 41.082 18.258l-39.5 316c-1.9609 15.668 10.258 29.508 26.047 29.508h310.35c15.789 0 28.004-13.84 26.047-29.508l-61.25-490c-1.6406-13.133-12.809-22.992-26.047-22.992zm197.77 35-1.2305-9.8359c-0.54688-4.3789-4.2695-7.6641-8.6836-7.6641h-187.85c-4.4141 0-8.1367 3.2852-8.6836 7.6641l-1.2305 9.8359zm-112.59 17.5h-97.277l-8 64.027c5.7891 3.2422 10.809 8.043 14.367 14.207 10.547 18.266 4.2852 41.625-13.98 52.168l-0.95312 0.55078 65.199 114.05h40.645v-35h-8.75c-4.832 0-8.75-3.918-8.75-8.75s3.918-8.75 8.75-8.75h8.75v-35h-8.75c-4.832 0-8.75-3.918-8.75-8.75s3.918-8.75 8.75-8.75h8.75v-35h-8.75c-4.832 0-8.75-3.918-8.75-8.75s3.918-8.75 8.75-8.75h8.75v-35h-8.75c-4.832 0-8.75-3.918-8.75-8.75s3.918-8.75 8.75-8.75h8.75zm17.5 210h8.75c4.832 0 8.75-3.918 8.75-8.75s-3.918-8.75-8.75-8.75h-8.75v-35h8.75c4.832 0 8.75-3.918 8.75-8.75s-3.918-8.75-8.75-8.75h-8.75v-35h8.75c4.832 0 8.75-3.918 8.75-8.75s-3.918-8.75-8.75-8.75h-8.75v-35h8.75c4.832 0 8.75-3.918 8.75-8.75s-3.918-8.75-8.75-8.75h-8.75v-35h97.277l30.77 246.16c-2.4492-0.75391-5.043-1.1562-7.7227-1.1562h-120.32zm-131.14-94.754-16.996 9.8164c-9.8945 5.7148-22.551 2.3203-28.262-7.5742-5.7148-9.8945-2.3242-22.551 7.5703-28.266l8.4297-4.8633 0.070313-0.042969 0.070313-0.039062 8.4297-4.8672c9.8945-5.7148 22.551-2.3242 28.262 7.5742 5.7148 9.8945 2.3242 22.551-7.5742 28.262zm-6.6836 147.25h69.527l34.508 60.367c-11.312 7.9102-18.711 21.031-18.711 35.883 0 24.164 19.586 43.75 43.75 43.75s43.75-19.586 43.75-43.75-19.586-43.75-43.75-43.75c-3.0352 0-6 0.30859-8.8633 0.89844l-30.527-53.398h168.46c4.3789 0 8.0859 3.2422 8.6719 7.582l25.914 192.5c0.70703 5.25-3.3789 9.918-8.6758 9.918h-309.97c-5.293 0-9.375-4.668-8.6719-9.918l25.914-192.5c0.58594-4.3398 4.293-7.582 8.6719-7.582zm4.4609-113.81 55.062 96.312h-59.523c-2.6797 0-5.2734 0.40234-7.7227 1.1562zm98.363 210.06c0-14.496 11.754-26.25 26.25-26.25s26.25 11.754 26.25 26.25-11.754 26.25-26.25 26.25-26.25-11.754-26.25-26.25z" fill-rule="evenodd"/>
</svg>
